<?xml version="1.0" standalone="no"?>
<!DOCTYPE svg PUBLIC "-//W3C//DTD SVG 20010904//EN"
 "http://www.w3.org/TR/2001/REC-SVG-20010904/DTD/svg10.dtd">
<svg version="1.0" xmlns="http://www.w3.org/2000/svg"
 width="2313.000000pt" height="741.000000pt" viewBox="0 0 2313.000000 741.000000"
 preserveAspectRatio="xMidYMid meet">
<metadata>
Created by potrace 1.16, written by Peter Selinger 2001-2019
</metadata>
<g transform="translate(0.000000,741.000000) scale(0.100000,-0.100000)"
fill="#000000" stroke="none">
<path d="M10706 5795 c10 -8 15 -14 9 -14 -5 1 -23 -4 -40 -12 -21 -9 -88 -14
-232 -17 -116 -2 -203 -7 -203 -13 0 -5 5 -9 10 -9 6 0 2 -10 -9 -22 -18 -19
-30 -21 -112 -20 -87 1 -91 0 -86 -20 3 -11 3 -17 0 -14 -3 3 -14 -6 -25 -19
-11 -14 -30 -25 -43 -25 -20 0 -23 -4 -21 -32 2 -18 4 -44 5 -57 1 -24 1 -24
21 -6 19 17 26 18 68 6 26 -7 54 -18 62 -26 8 -7 35 -16 60 -20 24 -4 72 -18
106 -31 46 -17 99 -26 210 -34 82 -6 156 -13 164 -16 8 -3 60 -10 115 -15 55
-5 143 -14 195 -19 192 -18 754 -6 849 20 20 5 117 16 216 25 207 17 227 21
277 46 79 40 120 12 99 -68 -6 -23 -18 -44 -26 -47 -9 -3 -24 -25 -34 -49 -26
-60 -62 -83 -141 -92 -36 -4 -94 -16 -130 -27 -84 -25 -354 -37 -850 -37 -495
0 -762 12 -865 39 -44 11 -122 25 -172 30 -59 5 -106 16 -130 29 -21 11 -62
22 -92 24 -43 3 -57 9 -75 31 -17 21 -31 28 -63 29 -27 1 -47 8 -55 20 -20 28
-47 2 -52 -51 -3 -31 -11 -48 -30 -63 -44 -35 -27 -58 44 -59 14 0 32 -5 40
-10 13 -9 13 -11 0 -20 -8 -5 -31 -10 -50 -11 -19 -1 8 -5 60 -10 52 -5 124
-14 160 -20 47 -9 356 -13 1122 -14 829 -2 1061 -5 1073 -15 9 -8 15 -29 15
-56 0 -35 -5 -47 -24 -60 -14 -8 -30 -31 -36 -50 -7 -19 -22 -47 -34 -62 -13
-15 -27 -38 -31 -52 -4 -14 -19 -41 -34 -60 -62 -82 -72 -98 -95 -147 -14 -29
-29 -53 -34 -53 -5 0 -16 -15 -23 -32 -7 -18 -26 -45 -41 -60 -15 -14 -28 -35
-28 -45 0 -11 -11 -30 -25 -43 -13 -12 -30 -39 -36 -59 -6 -20 -25 -54 -41
-76 -16 -22 -35 -49 -43 -60 -13 -19 -26 -20 -503 -23 l-490 -3 -28 24 c-16
13 -47 30 -69 37 -22 7 -54 23 -71 35 -17 13 -48 28 -71 34 -22 6 -48 19 -57
30 -9 10 -36 24 -60 30 -23 6 -50 19 -60 30 -10 11 -42 27 -70 35 -29 9 -61
25 -71 36 -10 11 -33 23 -52 26 -19 4 -46 17 -61 29 -15 12 -50 30 -79 39 -28
10 -63 26 -77 37 -35 28 -96 37 -96 15 0 -14 30 -38 114 -90 17 -11 35 -26 39
-33 4 -7 27 -23 50 -34 23 -12 58 -35 77 -50 19 -16 48 -39 63 -52 15 -12 44
-37 64 -54 20 -18 44 -33 55 -33 10 0 35 -16 57 -35 21 -19 43 -35 48 -35 5 0
22 -13 38 -30 16 -16 33 -30 38 -30 9 0 24 -11 120 -90 27 -22 55 -40 63 -40
7 0 19 -9 26 -20 7 -12 41 -36 75 -55 l61 -35 330 0 c287 0 333 -2 346 -16 25
-25 19 -69 -14 -107 -16 -19 -30 -40 -30 -45 0 -6 -13 -26 -29 -44 -15 -18
-31 -43 -35 -55 -4 -12 -20 -38 -36 -58 -17 -21 -30 -44 -30 -51 0 -8 -13 -26
-30 -41 -16 -14 -30 -34 -30 -44 0 -10 -11 -31 -24 -46 l-24 -28 -319 -3
c-199 -2 -331 1 -353 7 -22 7 -67 41 -120 92 -47 45 -135 126 -196 180 -61 54
-153 139 -203 188 -51 50 -96 91 -101 91 -12 0 -84 63 -233 204 -70 66 -144
135 -163 151 -20 17 -82 74 -138 127 -107 103 -131 125 -211 189 -46 36 -158
138 -230 209 -17 17 -40 30 -52 30 -12 0 -23 6 -25 12 -3 7 -8 -52 -11 -131
-10 -211 -23 -210 -47 4 -7 55 -14 103 -17 108 -10 16 -23 6 -23 -18 0 -17 -9
-29 -31 -41 -29 -15 -31 -18 -25 -55 5 -28 2 -47 -9 -62 -8 -12 -15 -39 -15
-60 0 -40 -24 -97 -40 -97 -6 0 -10 -133 -10 -361 l0 -361 25 -20 c17 -13 25
-29 25 -51 0 -80 38 -146 143 -248 37 -36 67 -71 67 -77 0 -6 6 -9 13 -6 17 6
51 -31 42 -45 -3 -6 0 -11 8 -11 8 0 29 -16 46 -35 17 -19 32 -35 35 -35 3 0
27 -24 55 -52 38 -41 47 -56 38 -66 -6 -7 -18 -11 -28 -9 -22 6 -31 -26 -14
-50 12 -16 18 -16 45 -6 29 11 32 10 54 -25 29 -45 86 -96 86 -77 0 9 8 6 24
-8 22 -19 23 -23 8 -28 -13 -5 -11 -7 8 -12 14 -3 45 -27 70 -52 34 -35 41
-48 32 -57 -7 -7 -12 -18 -12 -26 0 -21 87 -101 118 -108 34 -9 114 -87 136
-134 31 -65 61 -109 89 -130 15 -12 27 -30 27 -41 0 -12 4 -17 11 -14 16 11
59 -4 59 -20 0 -8 6 -15 14 -15 7 0 19 -14 26 -31 8 -19 16 -26 20 -19 5 8 13
5 23 -11 19 -26 14 -38 -8 -19 -13 11 -15 8 -15 -18 0 -37 29 -58 59 -43 16 9
18 6 17 -27 -1 -36 0 -37 36 -40 42 -4 57 -18 78 -76 13 -34 23 -43 59 -57 51
-18 61 -32 61 -81 0 -20 4 -39 8 -42 5 -3 7 9 5 27 -2 18 0 25 3 17 4 -8 16
-23 28 -32 20 -17 21 -18 1 -18 -19 0 -19 -1 1 -13 12 -6 33 -20 48 -31 14
-10 52 -21 85 -25 32 -4 69 -14 83 -23 36 -24 99 -30 363 -35 173 -3 251 -1
278 8 29 10 40 10 49 1 16 -16 59 -14 82 3 17 13 23 13 44 -1 18 -12 39 -14
85 -10 75 7 90 7 192 0 52 -4 93 -1 118 7 29 9 40 10 49 1 15 -15 53 -15 81
-1 31 17 313 18 356 2 44 -17 130 -16 161 2 33 19 71 19 96 0 25 -19 58 -19
97 1 27 14 53 16 179 10 l148 -7 64 31 c36 16 83 46 106 65 42 35 47 36 125
20 11 -3 44 -2 73 2 38 4 52 10 48 19 -7 19 11 27 41 19 18 -4 24 -11 20 -25
-3 -10 1 -21 9 -24 28 -11 315 -8 328 3 24 20 48 2 44 -31 l-5 -30 43 7 c25 3
60 1 84 -6 33 -10 48 -10 76 0 27 10 38 10 49 1 10 -8 28 -10 52 -5 21 4 77 9
126 12 78 4 87 6 87 24 0 17 8 19 100 19 98 0 100 -1 90 -20 -10 -19 -8 -20
62 -20 40 0 116 -3 169 -6 l97 -7 -5 26 c-4 18 1 28 16 36 11 6 32 23 46 37
32 32 59 28 63 -9 3 -21 8 -27 19 -23 8 3 36 6 63 6 43 0 48 2 43 20 -10 37 3
50 37 38 24 -8 30 -16 28 -32 -2 -17 5 -23 42 -33 25 -7 64 -12 87 -13 34 0
46 -5 59 -25 21 -32 39 -32 60 0 14 21 24 25 65 25 26 0 51 -5 54 -11 5 -6 13
-3 22 10 29 42 122 18 111 -27 -6 -20 -2 -22 55 -22 166 1 364 5 385 8 6 1 12
11 12 22 0 16 7 20 30 20 23 0 30 -4 30 -20 0 -23 29 -33 86 -28 32 2 40 7 42
26 3 19 9 23 35 20 24 -2 31 -7 29 -20 -2 -15 12 -17 115 -22 65 -3 138 -6
163 -8 38 -3 45 0 42 14 -3 19 33 42 54 34 8 -3 14 -12 14 -20 0 -9 19 -19 51
-27 30 -8 58 -23 69 -36 28 -36 70 -24 70 19 0 13 10 20 30 24 21 5 30 12 30
25 0 28 44 25 64 -5 15 -23 14 -25 -5 -28 l-21 -3 22 -28 c28 -36 42 -34 75 9
18 23 33 34 45 31 13 -3 16 1 12 19 -5 28 22 43 48 26 14 -9 19 -8 24 3 10 27
42 17 57 -17 10 -24 22 -34 42 -36 24 -3 26 -1 18 20 -10 28 1 69 14 49 5 -9
21 -11 49 -8 22 3 35 4 28 1 -7 -3 -19 -18 -26 -33 l-14 -27 186 4 c176 3 188
5 205 25 17 19 17 22 3 27 -13 4 -12 10 10 33 29 31 49 31 48 -1 -1 -40 105
-41 126 -2 5 10 17 26 26 34 20 21 83 21 90 1 5 -12 9 -13 20 -4 23 19 68 -5
61 -32 -4 -15 -2 -19 8 -15 19 7 95 -23 123 -48 22 -20 36 -21 207 -21 116 0
180 4 174 10 -13 13 -11 21 7 39 20 21 63 20 93 0 17 -12 21 -22 16 -41 -6
-26 -6 -26 47 -19 29 4 70 8 90 9 26 1 43 9 53 24 21 30 43 29 76 -3 l27 -26
23 26 c28 33 49 33 79 1 20 -22 32 -25 87 -25 56 0 67 3 88 26 24 26 26 26
145 23 66 -2 120 -1 120 2 0 3 14 4 30 1 21 -3 30 -10 30 -23 0 -17 8 -19 80
-19 67 0 86 4 109 21 l29 21 39 -20 c22 -13 64 -23 103 -26 158 -12 199 -20
216 -45 14 -19 22 -22 53 -17 33 6 39 3 72 -36 41 -47 39 -46 190 -33 62 6 66
8 61 30 -3 17 2 25 18 30 11 4 26 2 33 -3 8 -7 40 -7 92 0 44 5 90 10 102 10
19 0 20 3 11 24 -15 32 -8 37 54 35 37 0 57 -6 66 -18 7 -10 12 -12 12 -4 0 6
12 17 28 24 15 7 27 18 28 25 1 6 2 17 3 23 0 6 13 9 29 7 22 -2 27 -8 27 -31
-1 -22 4 -27 22 -27 27 0 69 58 53 74 -15 15 -12 24 9 31 33 10 51 -4 45 -35
-8 -38 24 -70 70 -70 51 0 67 9 60 34 -5 20 -2 21 61 18 59 -3 66 -6 62 -22
-4 -14 3 -20 27 -24 17 -4 44 -9 59 -13 16 -3 35 -16 44 -29 20 -31 46 -31 67
0 8 14 26 27 38 29 13 2 0 5 -28 6 -56 1 -91 24 -63 42 19 12 22 11 45 -6 25
-19 45 -19 80 0 16 8 48 15 71 15 36 0 42 -3 45 -22 3 -22 6 -23 98 -20 113 4
191 -12 221 -45 28 -29 43 -29 62 1 13 20 27 25 79 30 35 4 97 10 138 14 48 4
85 14 104 26 l28 20 27 -33 c20 -24 33 -32 52 -29 13 2 23 9 21 17 -4 19 17
41 39 41 12 0 19 -7 19 -19 0 -16 11 -20 80 -26 85 -8 103 -2 115 36 5 14 16
19 40 19 32 0 33 1 23 28 -7 18 -23 34 -42 41 l-31 12 24 19 c30 25 51 25 51
1 0 -12 12 -26 31 -35 28 -14 34 -14 60 0 24 12 29 21 29 51 0 29 -3 34 -12
25 -7 -7 -27 -12 -46 -12 l-35 0 42 45 c22 24 41 52 41 62 0 15 1 15 13 -1 12
-16 13 -8 11 55 -1 41 -2 82 -3 91 0 10 -15 33 -31 52 -27 31 -33 33 -55 22
-15 -6 -29 -24 -33 -41 -14 -50 -36 -37 -43 25 l-6 55 -1 -62 c-2 -67 -18 -93
-56 -93 -46 0 -57 20 -64 115 l-8 90 -11 -94 c-13 -111 -26 -130 -75 -105 -29
15 -68 11 -68 -6 0 -5 -9 -14 -19 -20 -26 -13 -154 44 -172 77 -16 30 -37 29
-45 -2 -4 -17 -16 -27 -39 -34 -18 -5 -43 -19 -55 -31 -20 -20 -23 -20 -39 -6
-27 24 -51 20 -51 -8 0 -14 -4 -36 -10 -50 -8 -22 -16 -26 -49 -26 -50 0 -51
3 -61 179 -4 75 -8 111 -9 81 -5 -110 -24 -160 -60 -160 -32 0 -51 33 -52 91
l-1 54 -10 -38 c-15 -57 -29 -48 -40 28 -5 33 -32 23 -43 -17 -13 -47 -23 -56
-29 -27 -3 13 -7 33 -9 44 -3 11 -5 2 -6 -21 -2 -64 -19 -103 -49 -111 -38 -9
-62 25 -64 93 -3 93 -5 114 -11 121 -4 3 -7 -37 -7 -89 0 -67 -4 -99 -13 -106
-7 -7 -46 -17 -86 -24 -65 -11 -76 -11 -103 5 -34 19 -61 22 -89 7 -14 -8 -27
-7 -47 4 -34 18 -92 81 -92 100 0 22 -31 28 -51 10 -11 -10 -24 -35 -30 -58
-27 -99 -108 -86 -110 17 l-2 52 -10 -38 c-6 -20 -15 -36 -21 -34 -6 2 -16 38
-22 80 -6 42 -13 79 -15 81 -2 2 -18 6 -36 9 -27 5 -32 3 -37 -18 -3 -13 -3
-31 0 -39 3 -9 0 -24 -7 -33 -10 -12 -10 -15 -1 -9 9 5 12 -13 12 -82 0 -76
-3 -91 -21 -111 -14 -15 -27 -20 -42 -15 -47 13 -65 64 -50 135 5 27 6 46 2
43 -4 -2 -10 6 -12 18 -3 15 -5 10 -6 -14 -1 -27 -9 -44 -32 -66 -21 -20 -32
-41 -36 -71 -9 -65 -23 -70 -198 -71 -294 -2 -305 -1 -305 49 0 38 28 50 125
53 103 4 98 23 -7 23 -65 0 -80 3 -100 23 -30 27 -40 28 -64 1 -21 -23 -109
-69 -133 -69 -8 0 -24 8 -35 18 -40 36 -95 43 -233 32 -116 -9 -130 -12 -151
-35 -28 -31 -33 -31 -62 0 -13 14 -34 25 -46 25 -66 0 -94 36 -112 140 -9 55
-10 55 -10 -33 0 -94 -14 -127 -54 -127 -37 0 -58 36 -59 103 l-1 62 -9 -54
c-11 -62 -12 -66 -34 -58 -9 4 -15 19 -15 39 0 25 -3 29 -10 18 -5 -8 -10 -27
-10 -42 0 -46 -55 -63 -90 -28 -17 17 -20 35 -22 127 l-2 108 -5 -117 c-6
-123 -12 -139 -58 -152 -39 -12 -63 24 -65 97 l-1 62 -6 -54 c-6 -57 -27 -80
-35 -39 -3 13 -8 37 -11 53 -4 17 -8 42 -8 57 -3 47 -15 20 -22 -50 -4 -38
-10 -75 -15 -82 -5 -8 -39 -16 -92 -20 -47 -4 -97 -14 -117 -24 -37 -20 -61
-18 -135 11 -42 16 -51 24 -59 53 l-10 35 -9 -33 c-6 -24 -18 -37 -42 -47 -18
-8 -38 -21 -46 -29 -16 -20 -49 -20 -77 -1 -12 8 -44 20 -72 26 -40 8 -52 15
-55 32 -3 12 -9 47 -14 77 l-9 55 -2 -63 c-1 -46 -5 -64 -16 -69 -9 -3 -19 -2
-23 1 -3 4 -9 60 -13 124 l-6 117 -1 -131 c-2 -143 -10 -164 -64 -164 -42 0
-53 24 -59 134 l-6 101 -1 -92 c-2 -71 -5 -93 -15 -93 -11 0 -16 27 -20 107
-6 110 -13 125 -52 120 -16 -1 -21 5 -23 31 -3 31 -2 32 25 27 28 -5 28 -5 3
5 -13 6 -27 16 -31 21 -6 10 -25 -50 -31 -96 -4 -27 -27 -43 -69 -47 l-34 -3
-5 -86 c-6 -99 -18 -122 -64 -117 -24 2 -31 9 -38 35 -10 39 -25 42 -38 9 -5
-15 -22 -29 -44 -36 -20 -6 -36 -16 -36 -20 0 -5 -9 -14 -21 -20 -16 -9 -29
-7 -67 13 -26 13 -64 27 -84 31 -29 5 -38 12 -38 27 0 17 -3 18 -20 7 -27 -17
-40 2 -40 55 0 43 -15 54 -57 39 -26 -8 -28 -13 -25 -54 3 -50 -15 -78 -48
-78 -11 0 -30 -12 -43 -26 l-25 -26 -62 28 c-72 32 -88 33 -127 6 -46 -33 -70
-36 -90 -12 -10 12 -32 28 -50 35 -36 15 -40 27 -52 131 l-8 69 -2 -80 c-1
-44 -4 -90 -7 -102 -6 -23 -49 -43 -93 -43 -14 0 -35 -7 -45 -15 -29 -22 -53
-18 -71 9 -9 13 -29 26 -46 30 -33 6 -48 35 -50 94 -1 34 -2 35 -8 9 l-6 -28
-26 28 c-15 15 -29 35 -32 43 -4 12 -6 12 -6 -2 -1 -9 10 -29 24 -44 19 -21
25 -38 25 -74 0 -34 -5 -50 -15 -54 -29 -11 -117 15 -142 42 -20 22 -27 24
-41 14 -37 -26 -89 -50 -118 -55 -17 -3 -41 -10 -53 -16 -26 -15 -61 -6 -82
21 -26 33 -87 34 -151 4 -66 -31 -79 -32 -102 -7 -10 11 -29 22 -42 25 -30 8
-48 49 -34 77 8 13 7 19 0 19 -6 0 -11 10 -10 23 4 43 0 77 -9 77 -4 0 -6 -11
-3 -25 9 -48 -9 -156 -29 -176 -45 -45 -88 -6 -91 84 -2 62 -2 62 -5 10 -7
-90 -51 -97 -54 -8 -1 39 -2 38 -10 -13 -12 -69 -23 -88 -53 -94 -49 -10 -60
19 -67 171 -6 147 -8 144 -14 -21 -2 -59 -6 -116 -10 -128 -10 -32 -38 -42
-66 -22 -13 9 -40 22 -59 27 l-35 11 -5 129 -6 130 -2 -102 c-1 -56 -5 -108
-8 -117 -10 -27 -23 -18 -29 22 -4 20 -9 44 -12 52 -3 8 -5 28 -4 44 2 19 -1
26 -9 21 -6 -4 -10 -19 -9 -33 2 -33 -10 -105 -22 -123 -13 -22 -23 -1 -30 59
l-6 57 -2 -65 c-1 -74 -19 -110 -55 -110 -31 0 -52 26 -64 80 -9 41 -10 42
-11 12 -1 -19 -7 -35 -16 -39 -23 -8 -27 -1 -35 64 l-7 58 -2 -67 c-1 -54 -5
-72 -22 -89 -39 -39 -89 -3 -90 65 0 23 -4 50 -9 61 -7 15 -9 9 -9 -26 -2 -85
-33 -133 -72 -108 -27 17 -66 10 -83 -16 -20 -31 -29 -31 -56 -3 -11 12 -35
27 -53 33 -31 10 -32 12 -35 73 -2 44 2 71 12 87 14 20 13 26 -4 59 l-18 36
-7 -117 c-4 -65 -12 -124 -17 -130 -14 -17 -50 -16 -73 1 -16 11 -19 32 -24
137 l-6 124 -6 -120 c-3 -66 -11 -131 -18 -143 -11 -21 -17 -23 -67 -16 -49 6
-57 4 -70 -15 -19 -26 -32 -26 -58 -2 -17 16 -62 28 -108 31 -19 1 -48 83 -50
137 -1 45 -3 37 -7 -34 -5 -77 -10 -96 -28 -114 -45 -46 -92 -2 -95 89 l-1 47
-6 -50 c-5 -41 -9 -50 -26 -50 -17 0 -21 8 -25 50 l-5 50 -6 -58 c-6 -63 -17
-77 -60 -77 -39 0 -48 18 -58 116 l-8 89 -2 -65 c-4 -134 -21 -170 -74 -156
-31 7 -46 50 -49 141 l-2 60 -5 -75 c-10 -129 -29 -86 -46 101 -6 64 -7 65
-33 62 -36 -5 -45 3 -69 58 -18 40 -19 49 -7 70 20 37 19 297 -2 327 -13 19
-13 27 -2 58 18 49 38 65 52 40 6 -11 24 -32 39 -46 15 -15 32 -43 38 -64 6
-20 18 -40 27 -43 9 -3 24 -12 33 -20 14 -12 20 -10 47 15 l31 29 30 -21 c17
-11 31 -26 31 -33 0 -6 8 -9 19 -6 10 3 32 -2 49 -11 37 -19 63 -21 59 -3 -4
20 169 22 189 2 20 -20 64 -20 64 0 0 10 10 15 34 15 29 0 33 -3 29 -20 -7
-25 3 -25 52 2 26 14 61 22 101 23 34 2 78 8 98 15 21 7 52 9 71 6 27 -5 36
-3 49 16 9 12 16 34 16 48 0 14 11 41 25 60 37 50 47 100 49 243 2 117 1 127
-16 127 -14 0 -18 8 -18 40 0 29 4 40 15 40 18 0 18 -2 0 50 -11 32 -12 46 -4
56 6 8 8 21 5 30 -4 9 -1 23 5 30 9 11 7 14 -11 14 -12 0 -36 12 -54 26 l-31
27 -12 -53 c-14 -66 -28 -81 -48 -54 -12 16 -14 16 -15 3 0 -9 -10 -23 -21
-31 l-21 -14 24 -36 c14 -20 38 -48 54 -62 l29 -26 -28 -23 c-15 -13 -35 -39
-45 -58 -14 -29 -24 -35 -66 -43 -39 -8 -53 -7 -75 7 -73 46 -72 46 -211 -21
-81 -40 -203 -44 -286 -9 -32 13 -70 28 -84 32 -14 4 -39 21 -57 37 -17 17
-41 35 -53 42 -12 6 -30 32 -40 58 -10 26 -27 59 -39 74 -24 31 -22 63 8 93
11 11 25 38 31 60 7 29 19 45 40 56 16 8 31 24 35 34 3 11 19 22 35 26 15 3
31 12 34 20 9 25 -13 78 -44 106 -26 24 -30 36 -31 81 l-2 53 -6 -47 c-4 -27
-12 -53 -18 -59 -16 -16 -35 23 -35 75 0 48 -10 72 -27 61 -8 -4 -10 -21 -6
-49 7 -41 5 -44 -29 -64 -32 -19 -35 -25 -35 -64 1 -24 -3 -76 -8 -115 -6 -54
-6 -73 3 -73 6 0 14 -11 16 -25 4 -18 1 -25 -11 -25 -14 -1 -14 -2 2 -11 22
-13 24 -106 3 -135 -14 -18 -15 -18 -21 11 -13 57 -16 65 -29 65 -16 0 -29 90
-16 104 5 5 4 20 -1 33 -5 13 -6 36 -3 51 6 26 6 26 -8 8 -15 -18 -15 -18 -20
13 -4 25 -1 31 10 26 11 -4 12 -1 6 12 -4 10 -8 36 -8 58 -1 36 2 41 37 57 20
10 37 22 37 27 0 25 -15 41 -46 51 -37 13 -41 25 -19 54 8 11 15 27 14 35 0
10 -4 7 -9 -6 -13 -31 -25 -29 -27 5 -1 15 -5 42 -9 61 -5 28 -4 33 8 28 28
-10 38 15 38 98 0 59 -4 87 -16 104 -16 22 -16 25 0 53 10 16 17 43 16 61 -3
57 -1 67 19 67 20 0 24 -8 36 -67 7 -36 38 -63 71 -63 13 0 36 -12 53 -26 l31
-26 36 22 c28 18 44 21 80 16 24 -3 44 -2 44 2 0 4 16 12 35 18 31 10 35 9 35
-6 0 -16 2 -16 34 -2 21 9 32 21 29 29 -7 17 47 39 57 23 4 -7 17 3 33 24 30
39 36 69 12 60 -18 -7 -19 0 -4 27 5 11 14 17 20 13 5 -3 28 10 49 30 45 40
56 43 88 20 21 -15 27 -13 100 22 42 21 82 45 89 54 11 13 15 13 39 0 30 -17
43 -40 22 -40 -14 0 -17 -52 -3 -83 4 -10 2 -23 -4 -31 -10 -12 -8 -13 9 -9
17 5 37 -9 88 -59 37 -36 80 -69 96 -72 27 -7 27 -6 12 10 -23 23 -16 26 25
12 54 -19 101 -50 95 -63 -6 -16 69 -9 132 11 55 18 76 18 118 -2 31 -15 37
-15 68 0 45 21 83 20 129 -4 50 -27 88 -26 117 5 31 33 46 32 81 -6 24 -26 34
-30 57 -24 15 3 34 12 42 19 18 16 97 28 127 20 13 -4 20 -11 16 -20 -7 -18 4
-17 52 6 36 16 43 17 74 4 44 -19 145 -18 201 2 26 9 61 14 83 11 20 -3 37 -2
37 3 0 15 50 18 58 3 6 -11 11 -8 20 13 13 27 11 27 90 7 18 -4 22 -1 22 19 0
14 3 27 6 31 7 7 73 -25 118 -56 22 -15 43 -20 94 -19 48 1 75 -4 98 -17 31
-19 32 -19 60 0 38 25 102 24 134 -1 24 -18 26 -18 55 0 21 13 49 18 96 18 79
-1 112 8 105 28 -18 47 159 48 229 1 26 -18 53 -27 80 -27 22 -1 51 -7 65 -15
29 -17 152 -20 180 -5 10 6 38 12 62 15 24 3 51 8 61 11 10 3 17 0 17 -8 0 -7
9 1 20 19 14 24 29 34 57 38 67 12 113 26 113 34 0 5 12 26 26 47 15 21 31 55
36 74 6 19 22 47 36 63 l26 27 -22 30 c-29 38 -29 98 -1 134 25 31 19 53 -16
66 -36 14 -39 32 -17 79 17 34 18 41 6 41 -10 0 -12 5 -7 13 4 6 8 35 8 62 0
45 2 50 23 49 29 -1 30 36 1 62 -13 12 -19 27 -16 41 3 17 0 23 -13 23 -9 0
-26 9 -38 20 -12 11 -28 20 -36 20 -8 0 -17 4 -20 9 -7 11 -82 -24 -93 -44 -5
-8 -32 -17 -65 -21 -56 -7 -58 -6 -89 27 -31 33 -33 34 -114 34 l-82 0 -41
-45 c-39 -41 -42 -48 -42 -103 0 -55 3 -62 38 -97 46 -46 97 -57 177 -39 45
10 59 18 71 41 18 35 58 38 92 6 13 -13 47 -28 75 -33 46 -9 53 -14 58 -40 6
-28 7 -29 14 -7 8 26 30 29 39 6 12 -32 6 -102 -9 -108 -17 -6 -34 21 -36 56
-1 13 -5 5 -8 -16 -5 -32 -13 -44 -42 -60 -20 -12 -51 -31 -70 -43 -19 -13
-43 -23 -54 -23 -11 0 -38 -12 -60 -25 -56 -35 -152 -35 -227 0 -29 14 -65 25
-80 25 -23 0 -87 42 -127 83 -67 70 -79 88 -85 127 -4 24 -16 54 -26 68 -29
36 -28 149 0 185 13 17 20 40 20 71 0 41 3 48 33 67 22 14 26 19 12 17 -15 -2
-21 3 -23 25 -3 26 6 32 43 28 7 0 9 14 7 36 -3 26 0 40 13 49 10 8 15 20 11
31 -8 25 -79 126 -92 130 -5 2 -14 -16 -20 -39 -10 -48 -34 -58 -45 -18 l-6
25 -4 -24 c-4 -23 -39 -49 -107 -80 -42 -20 -94 -12 -152 23 -51 30 -55 36
-61 77 -6 41 -6 42 -8 9 -4 -82 -41 -77 -41 5 0 30 -3 56 -7 58 -5 3 -8 -20
-8 -51 1 -32 -3 -73 -7 -92 -16 -75 -25 -255 -27 -578 l-1 -204 -31 -29 c-29
-27 -36 -29 -114 -29 -129 0 -119 -38 -125 469 -3 234 -7 399 -8 366 -4 -99
-14 -195 -22 -195 -8 0 -30 167 -30 227 0 68 -11 67 -84 -5 -37 -37 -68 -71
-69 -77 -1 -5 12 -12 28 -15 26 -5 30 -10 32 -40 1 -19 6 -53 11 -75 l9 -40 8
28 c6 21 10 25 16 15 12 -18 11 -68 -1 -68 -5 0 -10 5 -10 12 0 6 -3 8 -7 4
-4 -4 5 -18 21 -32 l27 -26 -3 -157 -3 -156 -38 -50 c-20 -27 -42 -54 -47 -60
-6 -5 -27 -27 -48 -47 -23 -23 -51 -39 -75 -43 -20 -4 -49 -17 -64 -28 -17
-14 -45 -22 -83 -25 -48 -4 -67 1 -125 28 -63 29 -73 31 -100 20 -41 -17 -103
-29 -147 -30 -28 0 -46 8 -73 31 l-35 31 0 197 c0 282 -21 581 -41 581 -5 0
-9 -6 -9 -14 0 -32 -19 -24 -30 11 -17 53 -25 58 -50 33 -20 -20 -21 -22 -4
-34 11 -8 15 -21 11 -34 -3 -12 -1 -25 4 -28 5 -3 9 -155 9 -351 0 -430 2
-423 -125 -423 -31 0 -66 8 -90 20 -46 24 -87 19 -154 -17 -55 -29 -87 -29
-159 1 -31 13 -72 27 -89 31 -18 3 -39 16 -47 27 -8 11 -28 28 -44 38 -23 14
-32 29 -37 61 -4 24 -18 59 -30 79 -22 32 -24 50 -30 239 -5 140 -10 199 -17
187 -9 -16 -10 -16 -23 0 -10 15 -12 10 -7 -34 3 -39 1 -57 -11 -70 -9 -10
-21 -39 -27 -66 -11 -50 -81 -146 -106 -146 -7 0 -25 -11 -40 -25 -15 -14 -37
-27 -48 -29 -12 -3 -50 -12 -86 -22 -42 -11 -104 -18 -175 -19 -128 -1 -122 5
-124 -131 -1 -114 -7 -119 -120 -119 -86 0 -91 1 -120 29 l-31 30 0 235 c0
130 -5 298 -12 374 -11 131 -23 173 -30 105 -4 -40 -23 -47 -35 -12 -12 35
-76 60 -98 37 -15 -14 -7 -47 14 -55 16 -6 23 -92 8 -112 -16 -22 -37 -13 -37
16 0 11 -11 31 -25 44 -16 15 -25 34 -25 54 0 43 -31 71 -70 64 -25 -5 -30 -3
-31 12 0 17 -2 16 -11 -3 -13 -28 -55 -37 -148 -31 -104 6 -108 13 -83 132 11
53 17 98 15 101 -3 3 -22 5 -42 5 -34 0 -38 -3 -44 -30 -4 -22 -14 -34 -34
-41 -17 -6 -32 -21 -39 -39 -10 -26 -14 -29 -35 -21 -12 5 -42 9 -66 9 -49 1
-76 17 -69 43 4 16 -9 18 -176 19 -193 1 -222 4 -250 28 -13 12 -15 17 -5 24
7 4 -261 8 -596 8 -547 0 -608 -2 -590 -15z m1074 -146 c30 -6 73 -15 95 -20
22 -5 110 -13 195 -18 85 -5 163 -12 172 -16 23 -9 31 -36 16 -51 -14 -13
-111 -50 -168 -65 -83 -21 -371 -32 -805 -32 -629 0 -820 15 -944 76 -50 25
-57 35 -39 59 11 14 44 19 177 28 91 6 188 17 217 26 29 8 112 19 186 24 175
11 827 4 898 -11z m1054 -109 c25 -9 26 -12 26 -103 0 -59 -4 -97 -12 -105 -8
-8 -58 -12 -160 -12 -136 0 -150 2 -169 21 -16 16 -19 27 -13 52 11 52 21 70
63 115 l40 42 100 0 c55 0 111 -4 125 -10z m3818 -1 c21 -11 21 -14 13 -358
-4 -190 -11 -354 -16 -363 -13 -23 -71 -38 -151 -38 -55 0 -71 4 -92 23 l-25
22 -3 353 c-3 305 -1 354 12 362 21 14 237 12 262 -1z m-3804 -287 c7 -10 12
-46 12 -94 0 -76 -1 -79 -27 -89 -19 -8 -92 -8 -233 -2 l-205 8 -9 28 c-12 32
5 70 57 127 l31 35 161 5 c178 6 195 4 213 -18z m-14 -272 c25 -9 26 -13 26
-84 0 -85 -10 -101 -66 -112 -58 -11 -508 6 -517 20 -27 41 -20 86 23 136 26
30 38 36 88 41 95 10 419 10 446 -1z m18 -268 c14 -14 12 -171 -3 -188 -9 -12
-68 -14 -333 -14 -363 0 -372 2 -370 62 1 37 35 118 58 137 8 7 103 12 252 14
288 4 383 2 396 -11z m-4006 -78 c10 -14 64 -71 122 -127 57 -56 161 -158 231
-227 69 -69 138 -132 154 -140 15 -8 199 -184 409 -390 553 -544 536 -526 543
-574 3 -23 5 -231 3 -463 -3 -382 -5 -424 -20 -439 -16 -16 -20 -16 -58 1 -23
10 -50 30 -61 44 -11 14 -42 49 -68 76 -26 28 -56 64 -66 80 -10 17 -29 41
-42 55 -13 14 -54 57 -91 97 -76 81 -83 88 -108 113 -11 11 -32 35 -49 55 -16
20 -70 79 -119 131 -50 52 -100 110 -113 129 -13 19 -27 35 -32 35 -4 0 -12 9
-17 20 -9 19 -152 178 -221 245 -18 17 -33 35 -33 39 0 4 -40 48 -89 99 -49
51 -108 116 -132 145 -24 29 -69 79 -99 111 -31 32 -64 70 -73 85 -10 14 -24
26 -32 26 -32 0 -35 39 -35 419 l0 381 40 0 c31 0 43 -5 56 -26z m3988 -174
c25 -9 26 -12 26 -97 0 -49 -5 -95 -10 -103 -8 -13 -62 -15 -407 -12 -227 2
-405 8 -415 13 -25 13 -22 49 6 88 14 19 28 46 31 62 4 15 12 32 19 38 8 7
108 12 267 14 140 1 300 3 356 5 56 1 113 -2 127 -8z m14 -272 c15 -15 16
-184 2 -193 -17 -10 -898 -5 -925 5 -28 11 -41 33 -30 53 72 135 69 132 105
138 19 4 215 7 435 8 300 1 404 -2 413 -11z m2 -277 c5 -11 10 -54 10 -95 0
-64 -3 -77 -19 -86 -29 -15 -964 -12 -1015 3 -48 15 -66 39 -48 65 7 9 19 32
27 49 27 58 54 67 205 74 74 3 291 6 482 7 334 2 348 1 358 -17z m-7 -269 c8
-7 18 -30 22 -50 6 -41 -7 -128 -23 -144 -13 -13 -1113 -11 -1147 2 -20 8 -25
16 -25 46 0 51 19 110 42 131 27 24 166 30 689 29 335 -1 429 -4 442 -14z m5
-264 c18 -18 16 -182 -2 -197 -10 -8 -182 -11 -644 -9 -557 3 -633 5 -647 19
-14 14 -14 22 -1 78 17 71 36 97 80 110 50 15 1199 14 1214 -1z m-4 -263 c12
-13 16 -36 16 -100 0 -73 -3 -86 -20 -95 -13 -7 -242 -10 -693 -10 -769 1
-723 -5 -715 81 5 50 42 107 83 126 12 6 276 11 666 12 586 2 648 1 663 -14z
m0 -260 c27 -27 25 -172 -2 -193 -14 -10 -163 -12 -765 -10 -728 3 -749 4
-763 22 -18 25 -18 60 1 96 18 35 65 86 85 92 8 3 333 6 721 7 643 2 708 1
723 -14z m6 -274 c5 -11 10 -55 10 -99 0 -62 -4 -83 -17 -93 -13 -12 -154 -14
-825 -14 -790 0 -810 0 -824 19 -28 39 -18 87 30 141 l44 50 728 5 c401 3 755
6 786 8 48 2 59 -1 68 -17z m5 -351 c0 -69 -2 -75 -25 -88 -20 -10 -186 -12
-865 -9 -509 2 -852 8 -870 14 -19 6 -34 20 -40 36 -8 24 -5 32 20 57 17 16
38 39 48 50 17 20 23 20 875 18 l857 -3 0 -75z"/>
<path d="M20486 5721 c-5 -42 -12 -64 -23 -68 -8 -3 -18 -1 -22 5 -5 8 -12 5
-24 -8 -9 -11 -23 -20 -30 -20 -8 0 -22 -9 -31 -19 -11 -13 -38 -22 -71 -26
-48 -6 -58 -4 -111 27 -47 27 -60 40 -65 66 -8 41 -21 56 -14 16 3 -16 1 -36
-4 -44 -17 -26 -33 4 -34 62 0 79 -12 27 -27 -117 -14 -130 -19 -277 -19 -568
l-1 -188 -32 -30 c-30 -27 -38 -29 -115 -29 -130 0 -123 -26 -124 424 0 216
-4 363 -9 351 -5 -11 -9 -40 -10 -65 -1 -25 -5 -54 -9 -65 -8 -19 -13 19 -36
228 -6 56 -7 58 -25 42 -10 -9 -22 -30 -25 -47 -4 -16 -20 -41 -37 -56 -21
-19 -28 -32 -23 -49 3 -12 -1 -28 -9 -35 -11 -10 -10 -14 8 -23 12 -6 21 -20
21 -32 0 -12 3 -25 8 -29 4 -4 7 -15 7 -24 0 -9 14 -32 31 -50 l31 -32 -4
-139 c-3 -133 -4 -139 -29 -166 -15 -15 -32 -45 -39 -67 -8 -25 -23 -44 -43
-55 -16 -9 -44 -28 -61 -42 -17 -15 -52 -32 -76 -39 -25 -6 -59 -20 -76 -31
-44 -27 -146 -26 -199 1 -22 11 -58 25 -80 31 -22 6 -55 24 -73 40 -18 16 -37
29 -41 29 -5 0 -14 13 -19 29 -6 16 -20 32 -32 36 -24 7 -40 42 -40 84 0 16
-11 40 -26 56 -24 26 -26 34 -21 87 3 32 14 74 26 94 12 20 21 52 21 76 0 25
7 49 17 60 14 15 14 19 3 16 -11 -2 -16 9 -18 45 -3 46 -14 61 -26 32 -3 -9
-13 -12 -23 -9 -10 3 -6 -2 10 -11 33 -19 33 -30 4 -97 -13 -30 -31 -76 -41
-104 -17 -51 -90 -144 -114 -144 -7 0 -23 -11 -36 -25 -17 -18 -43 -29 -99
-39 -42 -8 -85 -20 -96 -25 -11 -6 -59 -11 -108 -11 -48 0 -95 -4 -103 -10
-10 -6 -16 -36 -20 -105 -7 -125 -15 -133 -131 -133 -79 -1 -83 0 -114 31
l-32 32 -7 325 c-6 324 -11 400 -26 400 -5 0 -10 -12 -12 -27 -4 -39 -26 -40
-37 -1 -5 18 -10 25 -10 16 -2 -27 -37 -41 -73 -29 -26 9 -29 8 -24 -5 3 -9 6
-38 6 -66 0 -42 3 -51 21 -55 15 -4 19 -11 15 -27 -3 -11 -6 -24 -6 -28 0 -5
-8 -8 -19 -8 -32 0 -43 -90 -16 -126 8 -10 15 -29 15 -41 0 -13 5 -23 11 -23
6 0 9 -14 7 -32 -2 -24 -8 -32 -19 -30 -29 4 -40 -100 -14 -134 8 -10 15 -29
15 -41 0 -12 6 -23 13 -26 10 -3 10 -13 0 -50 -16 -60 -17 -169 -1 -185 8 -8
8 -12 1 -12 -22 0 -32 28 -36 95 l-3 70 -2 -72 c-2 -70 -1 -73 28 -95 37 -27
38 -44 5 -70 -29 -22 -23 -42 16 -61 13 -7 25 -22 27 -34 2 -15 11 -23 30 -25
22 -2 27 -8 27 -29 0 -20 4 -25 17 -21 9 2 22 -5 29 -17 9 -13 17 -17 24 -11
13 11 55 2 55 -12 0 -11 139 -8 146 4 10 15 43 8 54 -11 7 -14 6 -21 -3 -25
-6 -3 -1 -3 13 0 36 8 74 52 59 70 -8 10 -4 17 22 33 22 14 35 17 40 10 11
-18 49 9 65 46 8 19 22 39 32 44 10 5 24 21 32 36 21 38 55 52 149 61 l84 7
33 -39 c26 -31 33 -35 34 -20 0 18 3 16 30 -9 19 -18 28 -35 25 -46 -7 -20 47
-63 102 -83 35 -13 147 -70 193 -98 16 -10 29 -10 69 5 57 20 92 22 109 5 9
-9 18 -8 39 1 16 7 64 15 108 18 50 4 91 12 110 23 17 10 36 15 44 13 9 -4 11
0 6 16 -6 19 -3 21 34 21 22 0 51 -4 66 -10 21 -8 24 -13 16 -27 -12 -23 13
-73 37 -73 10 0 25 8 33 18 13 15 33 19 104 21 82 2 87 0 82 -18 -4 -17 1 -20
43 -23 l48 -3 -19 26 -18 26 35 19 c30 17 36 17 44 4 6 -8 8 -21 5 -27 -3 -10
0 -10 15 -1 14 9 29 10 59 2 22 -6 42 -8 43 -4 2 4 20 5 40 2 33 -4 36 -6 27
-23 -14 -26 16 -26 56 1 17 11 47 20 68 20 31 0 44 6 65 30 32 37 55 38 95 4
27 -22 38 -25 80 -21 41 3 53 0 77 -20 16 -13 44 -30 63 -38 31 -13 40 -12 88
5 30 11 50 20 44 20 -5 1 3 6 19 10 30 9 96 4 107 -8 3 -4 11 -25 17 -47 6
-22 18 -49 27 -60 15 -20 15 -20 8 0 -6 18 -5 18 10 6 9 -7 14 -18 10 -24 -3
-5 -2 -7 4 -4 12 7 73 -29 73 -43 0 -5 -12 -10 -27 -11 -16 0 -21 -3 -13 -6 8
-2 22 -7 30 -10 8 -3 28 -5 43 -4 15 2 38 -4 50 -12 45 -29 124 -46 226 -49
l105 -3 24 35 c13 19 35 41 48 48 14 8 23 19 21 26 -3 8 6 18 19 25 32 14 35
14 27 -5 -5 -12 0 -15 23 -12 26 3 29 7 32 40 2 26 11 44 29 58 22 17 23 20 7
20 -18 0 -18 2 2 18 12 9 24 24 28 32 3 8 5 0 3 -17 -3 -28 0 -33 19 -33 32 0
46 23 39 62 -6 31 -3 37 29 62 31 23 36 33 36 69 0 47 -12 73 -29 63 -21 -14
-11 33 14 61 19 22 24 24 25 11 0 -23 13 -23 33 0 25 27 22 62 -3 55 -13 -4
-20 0 -20 9 0 18 25 53 39 53 11 0 61 92 61 113 0 6 -7 12 -15 12 -8 0 -15 8
-15 19 0 22 25 45 39 37 5 -3 19 2 32 12 17 14 23 31 25 68 1 27 7 81 13 119
10 68 13 197 4 163 -5 -19 -23 -25 -23 -9 0 5 -3 17 -7 27 -5 13 -3 16 9 12
12 -5 15 4 14 53 -2 65 -20 91 -42 61 -10 -14 -17 -15 -46 -4 -40 14 -64 15
-29 1 20 -8 22 -13 16 -47 -3 -20 -13 -44 -21 -52 -12 -12 -16 -12 -29 5 -12
16 -14 17 -15 4 0 -8 -11 -26 -25 -39 -14 -13 -31 -42 -37 -64 -6 -23 -22 -52
-34 -66 -13 -14 -28 -50 -35 -80 -6 -32 -21 -66 -35 -81 -16 -16 -28 -45 -33
-79 -6 -35 -16 -58 -29 -69 -12 -9 -26 -37 -32 -66 -6 -27 -21 -63 -34 -80
-13 -16 -26 -40 -30 -53 -9 -27 -100 -122 -117 -122 -6 0 -33 -11 -61 -25 -60
-30 -186 -36 -208 -10 -7 9 -32 20 -56 26 -51 13 -68 30 -61 61 3 13 12 52 20
86 8 35 20 68 28 73 31 20 84 22 130 6 59 -21 79 -21 95 1 22 28 16 64 -21
138 -19 38 -35 81 -35 96 0 16 -12 42 -30 62 -20 23 -32 49 -37 81 -4 32 -16
59 -35 80 -15 18 -28 39 -28 47 0 8 -6 22 -13 32 -12 16 -17 17 -38 6 -13 -7
-33 -23 -44 -36 -15 -18 -34 -25 -77 -30 -52 -6 -58 -5 -83 20 -37 37 -65 46
-140 46 -59 0 -66 -2 -82 -27 -10 -15 -25 -35 -34 -44 -24 -24 -33 -111 -16
-152 36 -85 218 -99 279 -22 24 31 61 32 89 4 12 -12 44 -28 73 -38 46 -14 51
-19 54 -48 6 -65 -94 -183 -155 -183 -13 0 -46 -11 -73 -25 -64 -32 -167 -35
-221 -6 -20 11 -56 25 -80 31 -38 10 -90 44 -124 81 -5 6 -24 25 -41 43 -18
17 -35 47 -39 66 -4 19 -18 55 -31 80 -31 58 -32 139 -4 195 11 22 23 58 26
80 3 22 8 47 11 55 3 8 5 24 4 36 -2 25 23 49 43 41 11 -4 13 1 10 20 -3 17 2
37 15 54 27 36 27 36 -8 31 -25 -3 -29 0 -34 25 -3 15 -1 33 3 38 5 6 5 17 0
25 -6 8 -10 25 -10 36 0 12 -8 32 -19 45 l-18 23 -7 -63z m-89 -194 c15 -15
18 -35 17 -130 -1 -100 -11 -530 -13 -549 -1 -5 -20 -21 -43 -38 -36 -26 -49
-30 -110 -30 -38 0 -78 5 -88 10 -34 18 -40 75 -40 407 0 286 2 323 17 338 24
25 234 18 260 -8z"/>
<path d="M13506 5511 c-2 -3 -7 -47 -11 -97 -10 -133 -12 -131 127 -127 62 2
122 6 133 8 22 5 65 73 65 102 0 31 -44 103 -65 108 -34 7 -246 12 -249 6z"/>
<path d="M18215 5498 c-9 -30 -14 -184 -7 -196 6 -9 41 -12 138 -10 l129 3 28
57 c32 64 31 79 -13 126 l-31 32 -120 0 c-87 0 -121 -3 -124 -12z"/>
<path d="M21589 5464 c-14 -4 -31 -61 -30 -99 3 -75 48 -205 71 -205 11 0 12
10 14 81 1 37 7 52 26 69 18 15 20 20 7 16 -24 -7 -39 32 -35 93 3 40 0 46
-17 48 -11 0 -27 -1 -36 -3z"/>
<path d="M14520 5453 c-1 -37 -21 -211 -26 -225 -9 -30 -24 -9 -24 35 0 31 -3
38 -10 27 -5 -8 -10 -61 -10 -117 0 -129 7 -135 126 -131 l79 3 5 65 c7 95 0
261 -11 255 -5 -4 -9 -18 -9 -33 0 -15 -4 -33 -9 -41 -9 -14 -14 -1 -35 89 -5
23 -76 91 -76 73z"/>
<path d="M15411 5308 c-6 -7 -23 -29 -40 -48 -27 -33 -36 -69 -32 -127 2 -31
71 -99 110 -108 41 -9 133 2 155 18 23 17 31 135 14 207 -15 63 -24 67 -130
69 -43 1 -71 -4 -77 -11z"/>
<path d="M19143 5293 c-10 -16 -26 -35 -36 -43 -11 -10 -19 -36 -23 -77 l-7
-62 42 -38 c57 -51 117 -65 184 -43 27 9 54 24 59 34 14 26 14 154 -1 198 -15
44 -47 58 -137 58 -58 0 -65 -2 -81 -27z"/>
<path d="M16383 4085 c-38 -38 -42 -46 -36 -79 4 -27 13 -40 29 -47 16 -6 24
-16 24 -33 0 -13 3 -32 7 -42 5 -14 3 -16 -12 -10 -13 5 -10 -1 9 -19 15 -14
31 -23 36 -20 13 8 33 -23 26 -41 -5 -13 -9 -14 -21 -4 -11 9 -15 9 -15 1 0
-6 11 -16 24 -22 18 -9 25 -21 29 -58 6 -47 0 -218 -9 -277 -7 -47 -148 -191
-200 -205 -21 -6 -56 -22 -77 -36 -32 -23 -44 -25 -95 -21 -34 4 -80 17 -110
32 -82 41 -80 43 -84 -98 -4 -161 -8 -166 -124 -166 -78 0 -86 2 -115 28 l-31
28 1 335 c2 313 -2 380 -29 524 -7 40 -7 40 -9 6 -1 -31 -3 -33 -28 -27 l-28
7 23 -16 c20 -15 22 -24 22 -98 -1 -50 -7 -98 -17 -122 -8 -22 -25 -69 -37
-103 -18 -54 -33 -76 -97 -140 -113 -114 -133 -129 -181 -137 -24 -4 -56 -18
-71 -31 -26 -22 -37 -24 -144 -24 -105 0 -120 2 -157 24 -23 13 -59 28 -80 32
-22 4 -52 20 -69 35 -16 16 -38 31 -48 34 -10 3 -20 14 -23 23 -3 10 -19 26
-36 35 -16 10 -30 25 -30 33 0 8 -13 27 -30 42 -23 21 -31 40 -36 77 -4 30
-17 64 -33 85 -22 30 -26 46 -28 115 -2 76 -1 81 25 102 l27 21 -27 -5 c-23
-4 -28 -1 -34 21 -3 14 -12 26 -20 26 -11 0 -11 -6 -3 -27 11 -30 2 -193 -11
-193 -11 0 -20 37 -21 90 -1 25 -3 37 -6 28 -2 -10 -8 -18 -13 -18 -5 0 -10
-12 -12 -27 -2 -21 -10 -29 -34 -35 -18 -4 -34 -15 -38 -23 -9 -24 3 -43 24
-38 15 4 18 -1 17 -29 -1 -21 -8 -36 -20 -40 -9 -4 -22 -19 -27 -33 -5 -14
-15 -25 -22 -25 -9 0 -9 -3 -2 -8 13 -9 44 -70 44 -87 0 -7 -6 -18 -14 -24 -8
-7 -12 -21 -9 -31 3 -11 0 -27 -7 -35 -8 -10 -9 -15 -1 -15 10 0 52 -56 76
-101 5 -11 15 -19 21 -19 7 0 14 -10 18 -22 10 -38 7 -51 -9 -44 -31 11 -26
-25 9 -78 20 -30 45 -58 56 -61 13 -4 22 -19 26 -43 8 -47 18 -58 60 -72 43
-15 86 -6 78 15 -8 19 19 20 35 1 9 -11 9 -15 -1 -18 -7 -3 6 -15 29 -27 29
-14 48 -32 57 -56 16 -39 35 -43 111 -25 30 7 47 5 69 -5 29 -15 101 -20 130
-9 8 3 12 12 10 19 -8 20 52 30 70 12 8 -8 45 -17 82 -20 58 -6 71 -4 89 12
45 41 116 64 130 41 3 -5 13 -6 21 -3 19 7 34 -13 34 -44 0 -16 -6 -23 -20
-23 -30 0 -25 -35 9 -59 21 -15 30 -18 34 -9 7 20 49 -23 44 -44 -10 -37 63
-70 136 -62 29 3 79 1 111 -4 47 -8 63 -7 74 4 7 8 30 15 50 15 30 2 32 3 10
6 -29 4 -38 21 -15 27 33 11 74 14 85 7 7 -4 14 -18 15 -29 1 -12 2 -22 3 -22
2 0 15 5 30 10 24 10 26 14 20 51 -4 28 -1 51 10 74 21 45 65 59 155 52 66 -6
69 -5 89 21 39 52 39 53 88 48 26 -3 73 -8 105 -12 62 -6 79 -22 59 -55 -10
-16 -8 -17 20 -8 17 4 38 15 48 24 9 8 38 16 63 17 37 2 51 -3 72 -22 l25 -24
30 29 c19 18 39 27 57 26 15 0 77 -3 137 -5 93 -4 111 -7 130 -26 28 -26 48
-19 71 25 38 69 139 87 198 35 19 -16 41 -30 48 -30 8 0 35 -11 61 -25 56 -30
68 -31 61 -6 -4 14 2 19 26 23 17 3 33 2 36 -1 3 -2 30 -4 59 -2 30 1 57 -2
61 -8 16 -27 43 -31 69 -10 23 18 37 20 111 17 47 -2 85 0 85 5 0 4 14 7 30 7
25 0 30 -4 30 -25 0 -20 5 -25 24 -25 29 0 38 12 46 60 5 31 10 36 44 44 52
13 121 -22 142 -72 l14 -35 53 7 c28 3 82 6 120 6 53 0 67 3 67 15 0 11 11 15
36 15 29 0 35 -3 30 -16 -7 -18 14 -16 71 7 30 12 34 11 57 -10 30 -28 53 -22
67 17 12 36 74 72 122 72 28 0 40 -6 57 -30 16 -23 29 -30 54 -30 18 0 54 -11
80 -25 57 -31 79 -31 118 -4 16 12 50 24 75 27 32 3 49 11 60 28 18 29 69 44
102 32 13 -5 37 -20 53 -33 16 -14 35 -25 41 -25 7 0 29 -9 50 -20 45 -24 79
-27 71 -5 -5 12 2 15 29 15 20 0 47 4 62 10 20 8 27 7 31 -4 5 -12 10 -12 34
3 36 21 77 71 59 71 -7 0 -2 11 11 25 13 14 26 21 29 16 4 -5 22 3 41 19 l35
29 0 238 c0 251 -6 313 -31 313 -8 0 -19 12 -24 26 -13 33 -13 47 1 38 8 -5 8
-1 0 14 -6 11 -11 38 -11 58 0 34 -1 36 -14 19 -12 -17 -13 -16 -20 10 -10 40
-16 26 -27 -56 -5 -40 -12 -82 -16 -94 -6 -19 -7 -19 -14 5 -4 14 -8 59 -10
100 l-2 75 -7 -75 c-4 -41 -8 -141 -9 -222 -1 -172 -4 -178 -95 -199 -45 -10
-67 -10 -111 0 -86 19 -89 28 -81 224 7 177 -3 274 -31 295 -9 6 -41 12 -70
12 -47 0 -58 -4 -91 -34 l-37 -35 0 -211 c0 -206 -1 -212 -22 -230 -29 -23
-96 -33 -170 -25 -91 10 -93 14 -94 224 -2 204 -14 444 -17 326 -5 -176 -51
-142 -53 39 -1 78 -3 86 -11 59 -6 -19 -18 -33 -27 -34 -11 0 -10 -3 5 -9 19
-8 22 -19 28 -117 5 -76 2 -134 -8 -197 -13 -77 -19 -93 -45 -117 -17 -15 -31
-35 -31 -44 0 -8 -12 -21 -27 -28 -16 -6 -40 -24 -55 -39 -14 -16 -34 -28 -45
-28 -10 0 -45 -14 -78 -30 -76 -38 -159 -41 -220 -9 -22 12 -62 28 -89 35 -27
7 -61 25 -75 38 -14 14 -37 37 -51 50 -67 66 -82 95 -91 169 -4 39 -8 116 -9
169 0 95 1 98 30 128 17 17 30 37 30 45 0 8 11 22 25 31 24 16 35 54 15 54 -5
0 -10 9 -10 21 0 13 10 23 30 30 17 6 30 13 30 14 0 2 -11 16 -25 31 -14 15
-25 39 -25 53 0 15 -7 37 -16 50 l-17 23 -24 -26 c-19 -21 -28 -24 -42 -16
-15 8 -20 5 -24 -10 -8 -30 -27 -24 -28 8 0 26 -1 25 -12 -8 -9 -26 -24 -42
-62 -62 -66 -37 -123 -36 -195 0 -52 26 -55 30 -61 72 l-6 45 -1 -42 c-2 -29
-6 -43 -16 -43 -17 0 -33 19 -37 45 -4 21 -57 42 -83 32 -10 -4 -16 -18 -16
-35 0 -25 3 -29 23 -25 21 4 23 2 19 -25 -2 -20 -13 -34 -30 -42 -24 -10 -25
-13 -9 -21 20 -11 23 -59 5 -77 -9 -9 -9 -12 -1 -12 7 0 14 -10 16 -22 l4 -23
2 23 c2 35 35 25 39 -12 3 -26 1 -28 -19 -23 -21 6 -20 4 6 -17 l30 -24 -3
-264 c-2 -144 -6 -271 -8 -281 -9 -31 -64 -50 -154 -55 -131 -6 -124 -21 -130
268 -6 277 -3 270 -97 270 -47 0 -58 -4 -91 -34 l-37 -35 0 -211 c0 -207 0
-212 -22 -230 -46 -37 -214 -38 -244 -1 -14 17 -17 71 -23 368 -4 191 -4 356
-1 366 4 10 18 17 34 18 20 1 22 2 6 6 -34 8 -40 21 -21 42 13 15 16 28 11 48
-12 48 -45 73 -45 34 0 -23 -28 -48 -39 -35 -5 5 -11 18 -14 29 -4 18 -5 17
-6 -3 -1 -16 -11 -27 -36 -37 -19 -8 -39 -24 -44 -34 -24 -43 -185 -35 -225
12 -11 14 -31 30 -43 36 -15 8 -23 21 -24 39 -1 26 -1 26 -10 -5 -12 -41 -34
-42 -48 -3 -5 17 -11 30 -13 29 -2 -1 -22 -20 -45 -44z m422 -131 c8 -4 23
-20 32 -37 14 -27 15 -58 9 -227 -3 -107 -7 -244 -7 -304 -1 -60 -6 -120 -12
-133 -19 -41 -67 -63 -141 -63 -72 0 -100 9 -111 37 -13 34 -18 688 -6 711 11
20 19 22 116 22 57 0 111 -3 120 -6z m1323 -11 c7 -18 9 -186 4 -519 -3 -224
-2 -223 -112 -230 -90 -7 -149 10 -167 48 -18 36 -21 682 -3 703 10 12 39 15
142 15 113 0 129 -2 136 -17z"/>
<path d="M22838 3940 c-5 -96 -8 -292 -8 -436 0 -297 4 -284 -85 -304 -66 -15
-139 -4 -173 25 l-27 23 -6 421 c-3 231 -8 424 -12 427 -4 4 -7 -17 -7 -47 0
-30 -5 -72 -12 -94 l-11 -40 -13 30 c-7 17 -14 57 -15 90 l-2 60 -7 -70 c-4
-38 -8 -221 -9 -406 -1 -209 -5 -348 -12 -367 -15 -43 -56 -57 -159 -55 -125
4 -120 -8 -121 282 -2 263 -14 668 -17 551 -4 -141 -23 -196 -37 -102 -12 84
-16 93 -36 87 -11 -4 -19 -2 -19 3 0 14 -71 -9 -77 -24 -2 -7 5 -22 16 -33 23
-23 27 -47 9 -53 -8 -3 -8 -9 0 -24 6 -10 12 -13 12 -6 0 18 37 15 44 -4 8
-20 -1 -34 -21 -34 -13 0 -11 -6 10 -28 21 -22 27 -38 28 -77 0 -28 5 -71 10
-96 8 -37 7 -57 -6 -95 -9 -27 -20 -51 -26 -54 -5 -3 -115 -5 -244 -4 -220 2
-235 1 -235 -16 0 -14 19 -24 81 -44 44 -14 86 -26 94 -26 8 0 35 11 61 25 66
35 101 33 158 -11 59 -47 66 -74 35 -133 -21 -41 -29 -47 -74 -57 -27 -7 -67
-19 -88 -28 -20 -9 -63 -19 -95 -22 -47 -5 -67 -2 -117 19 -33 14 -77 28 -99
32 -23 5 -48 19 -64 36 -14 16 -30 29 -35 29 -14 0 -84 75 -101 109 -9 16 -23
34 -33 39 -21 12 -35 108 -27 186 4 35 18 80 35 113 16 30 29 64 29 74 0 12
10 23 25 29 30 11 33 20 5 13 -15 -4 -20 0 -20 15 0 12 6 25 13 29 18 12 18
43 -1 43 -8 0 -21 8 -28 18 -12 15 -13 15 -14 1 0 -10 -20 -22 -55 -35 -32
-10 -62 -28 -70 -41 -26 -39 -108 -30 -155 17 -25 25 -95 34 -192 26 -73 -6
-84 -10 -124 -43 -26 -22 -46 -48 -50 -66 -3 -16 -15 -48 -25 -71 -24 -53 -24
-97 0 -127 10 -14 23 -41 29 -61 5 -20 25 -50 43 -67 36 -32 61 -42 39 -16 -8
10 -10 19 -4 25 5 5 71 10 147 12 112 2 140 0 147 -12 8 -12 10 -12 15 2 4 9
18 19 33 23 20 5 23 8 11 16 -12 8 -12 10 1 19 8 5 20 10 25 10 6 0 17 -5 25
-10 13 -9 13 -11 0 -20 -13 -8 -12 -11 6 -16 12 -3 26 -16 32 -29 6 -13 25
-31 41 -40 36 -18 47 -51 35 -108 -7 -33 -16 -45 -41 -57 -17 -8 -39 -25 -50
-38 -11 -13 -36 -25 -65 -31 -25 -4 -58 -18 -73 -30 -25 -19 -40 -21 -144 -21
-108 1 -120 3 -176 30 -33 17 -67 30 -77 30 -9 0 -33 14 -51 30 -19 17 -39 30
-43 30 -13 0 -94 86 -94 100 0 6 -15 25 -34 43 -28 26 -35 42 -40 86 -3 33
-15 69 -30 91 -13 20 -27 58 -31 83 -6 41 -5 47 19 62 30 20 34 35 7 28 -19
-5 -31 19 -31 63 0 17 -8 23 -36 28 -48 10 -65 -6 -63 -58 1 -44 -15 -159 -25
-175 -4 -5 -3 -12 2 -15 5 -3 7 -19 4 -36 -3 -23 -9 -31 -21 -27 -14 3 -16 -2
-13 -30 3 -20 10 -33 18 -33 9 0 14 -12 14 -35 0 -24 -5 -35 -15 -35 -12 0
-15 -17 -15 -95 0 -80 2 -93 15 -89 9 4 15 0 15 -9 0 -8 16 -34 35 -57 36 -44
41 -66 12 -64 -20 2 -33 -34 -18 -49 6 -6 26 -11 44 -12 27 0 35 -6 52 -41 11
-23 41 -64 66 -92 45 -50 57 -57 203 -113 27 -10 59 -28 72 -40 21 -20 30 -21
89 -15 49 5 72 3 94 -9 49 -25 145 -18 135 10 -7 17 17 23 87 24 31 1 67 5 80
10 l24 10 -25 0 c-22 1 -21 3 13 21 41 22 78 26 75 8 -5 -21 31 -20 59 1 15
12 34 19 44 16 9 -3 20 -1 24 5 9 14 66 -16 60 -33 -2 -6 11 -19 29 -28 29
-13 35 -13 43 -1 7 12 13 13 31 3 12 -6 22 -18 22 -25 0 -10 18 -16 58 -19 31
-3 71 -8 87 -12 19 -4 41 -1 58 8 20 10 47 13 93 9 56 -4 68 -2 87 16 24 23
97 52 128 52 11 0 28 -9 39 -20 17 -17 23 -18 39 -8 15 9 23 9 36 -2 10 -8 36
-13 68 -11 34 1 59 -3 72 -13 26 -20 44 -20 66 0 16 14 44 16 191 15 161 -2
174 -3 195 -23 l23 -21 23 20 c12 11 31 25 42 31 19 11 19 11 -3 12 -23 0 -23
0 5 24 15 13 31 20 34 15 3 -5 29 13 57 41 28 27 56 50 62 50 6 0 10 28 10 66
0 49 6 79 22 111 21 42 21 45 5 72 -15 26 -17 67 -17 353 0 199 -4 346 -11
380 -12 58 -55 124 -66 100 -4 -10 -8 -10 -19 -2 -21 19 -32 3 -39 -55 -4 -31
-11 -57 -15 -60 -8 -5 -18 69 -23 170 -1 28 -5 -29 -9 -125z"/>
<path d="M13935 3933 c-9 -83 -14 -103 -27 -103 -7 0 -9 16 -5 50 3 27 2 52
-4 55 -5 4 -9 -6 -9 -22 0 -15 -4 -43 -9 -61 -11 -37 -80 -112 -104 -112 -8 0
-20 -7 -27 -15 -18 -22 1 -60 40 -80 36 -19 45 -15 55 22 10 43 24 53 74 54
25 1 38 3 29 6 -25 6 -22 30 5 37 43 11 112 6 136 -11 24 -16 24 -16 17 12 -9
36 -82 124 -112 135 -15 6 -27 23 -34 50 -6 22 -13 40 -15 40 -2 0 -6 -26 -10
-57z"/>
<path d="M14945 3921 c-49 -8 -113 -56 -122 -91 -3 -14 -17 -45 -31 -70 -30
-56 -25 -119 12 -175 14 -21 26 -43 26 -49 0 -14 79 -80 87 -72 4 3 1 6 -5 6
-7 0 -12 9 -12 20 0 17 7 20 58 22 99 3 197 -4 207 -14 7 -6 3 -14 -9 -24 -14
-10 -16 -14 -6 -14 23 0 137 129 144 162 3 17 6 57 6 89 0 58 -1 60 -63 132
-43 48 -73 74 -93 78 -38 9 -148 8 -199 0z"/>
<path d="M15973 3703 c-10 -16 -28 -38 -40 -50 -18 -18 -23 -33 -23 -75 0 -48
4 -57 40 -95 32 -33 49 -42 87 -47 71 -9 145 12 154 44 11 40 10 144 -2 181
-19 56 -41 69 -125 69 -69 0 -75 -2 -91 -27z"/>
<path d="M18531 3711 c-11 -11 -27 -44 -37 -75 -15 -49 -16 -62 -4 -111 15
-64 21 -70 83 -89 36 -11 54 -11 93 -1 42 10 54 19 82 61 51 78 43 121 -42
217 -24 26 -149 24 -175 -2z"/>
<path d="M13490 3590 c0 -6 -13 -24 -30 -42 -44 -45 -41 -87 7 -124 31 -23 50
-29 104 -32 59 -4 68 -2 82 18 22 32 12 53 -66 125 -65 61 -97 79 -97 55z"/>
</g>
</svg>
